<svg width="540" height="79" viewBox="0 0 540 79" fill="none" xmlns="http://www.w3.org/2000/svg">
<path fill-rule="evenodd" clip-rule="evenodd" d="M297.465 48.4466L297.541 48.7311L296.576 52.7074L296.383 51.9889L295.391 55.6839L296.123 58.4103L307.498 16.0161H308.012L308.172 15.4187H310.243L310.083 16.0161H310.243L297.818 62.3865H297.333L297.172 62.9839H295.045L294.238 59.9754L293.591 62.3865H291.463L285.903 43.5975L280.882 62.3865H278.755L278.915 61.7892H278.755L286.744 32.0074L285.756 28.318L276.627 62.3865H274.528L274.688 61.7892H274.528L284.626 24.1021L283.642 20.4307L272.4 62.3865H270.301L270.461 61.7892H270.301L282.754 15.4187H284.825L284.665 16.0161H284.825L284.786 16.1619L285.771 19.8307L286.953 15.4187H289.052L288.892 16.0161H289.052L289.013 16.1623L290.001 19.8675L291.18 15.4747L291.151 15.4187H293.307V15.4747L298.839 34.2917L299.437 32.0703L295.3 16.6135H295.46L295.3 16.0161H297.428L300.583 27.8087L303.917 15.4187H306.044L305.884 16.0161H306.044L301.728 32.0873L301.796 32.341L301.715 32.6356L301.796 32.9383L300.718 36.8585L300.583 36.3525L299.585 40.0658L299.669 40.3774L299.588 40.6733L299.669 40.9747L298.619 44.8389L298.462 44.2494L297.48 47.9054L297.541 48.1338L297.465 48.4466ZM290.016 28.3012L295.239 47.7321L294.612 50.0285L289.165 31.4426L290.016 28.3012ZM287.885 20.3719L288.876 24.0603L287.891 27.733L286.901 24.0436L287.885 20.3719ZM292.126 20.4619L297.324 39.9759L296.74 42.1881L291.265 23.6032L292.126 20.4619ZM293.096 55.7108L287.883 36.257L287.064 39.3373L292.485 57.981L293.096 55.7108Z" fill="white"/>
<path fill-rule="evenodd" clip-rule="evenodd" d="M307.914 62.3865H307.753L320.178 16.0721L320.15 16.0161H322.306V16.0721L327.838 34.8891L332.916 16.0161H335.043L334.883 16.6135H335.043L322.59 62.9839H320.462L314.902 44.1949L309.881 62.9839H307.753L307.914 62.3865ZM316.063 39.9347L321.483 58.5783L322.477 54.8855L317.03 36.2985L316.063 39.9347ZM324.604 46.9868L323.611 50.6259L318.163 32.04L319.157 28.3741L324.604 46.9868ZM320.263 24.2006L325.738 42.7855L326.705 39.1224L321.285 20.4777L320.263 24.2006Z" fill="white"/>
<path d="M303.687 62.3865H303.527L315.952 16.0161H316.437L316.597 15.4187H318.725L318.565 16.0161H318.725L306.3 62.3865H305.786L305.626 62.9839H303.527L303.687 62.3865Z" fill="white"/>
<path d="M299.46 62.3865H299.3L311.753 16.0161H312.21L312.37 15.4187H314.47L314.31 16.0161H314.47L302.045 62.3865H301.559L301.399 62.9839H299.3L299.46 62.3865Z" fill="white"/>
<path d="M333.331 62.3865H333.171L345.596 16.0161H347.723L347.563 16.6135H347.723L335.298 62.9839H333.171L333.331 62.3865Z" fill="white"/>
<path d="M329.104 62.3865H328.944L341.369 16.0161H343.468L343.308 16.6135H343.468L331.043 62.9839H328.944L329.104 62.3865Z" fill="white"/>
<path d="M324.878 62.3865H324.717L337.171 16.0161H339.242L339.081 16.6135H339.242L326.816 62.9839H324.717L324.878 62.3865Z" fill="white"/>
<path d="M369.623 48.7778L370.446 46.7617H377.424L378.247 48.7778H378.003L378.247 49.3752H369.623L369.867 48.7778H369.623Z" fill="white"/>
<path d="M368.035 52.81L368.829 50.7939H379.013L379.893 52.81H379.632L379.893 53.4074H368.035L368.27 52.81H368.035Z" fill="white"/>
<path d="M366.446 56.8422L367.24 54.8261H380.63L381.481 56.8422H381.229L381.481 57.4396H366.446L366.682 56.8422H366.446Z" fill="white"/>
<path d="M347.878 62.3865H347.638L366.219 16.0161H368.432L386.984 62.3865H386.745L386.984 62.9839H384.8L367.326 19.3296L349.851 62.9839H347.638L347.878 62.3865Z" fill="white"/>
<path d="M367.581 23.5205L368.744 26.0966L368.617 26.4133L368.744 26.694L354.22 62.9839H352.035L352.274 62.3865H352.035L367.581 23.5205Z" fill="white"/>
<path d="M369.85 28.8408L370.928 31.6129L370.811 31.9077L370.928 32.2103L358.645 62.9839H356.432L356.671 62.3865H356.432L369.85 28.8408Z" fill="white"/>
<path d="M372.006 34.3851L373.084 37.2132L372.968 37.5047L373.084 37.8106L363.014 62.9839H360.829L361.068 62.3865H360.829L372.006 34.3851Z" fill="white"/>
<path d="M399.936 62.3865H400.175L381.595 16.0161H379.41L379.649 16.6135H379.41L397.963 62.9839H400.175L399.936 62.3865Z" fill="white"/>
<path d="M377.198 16.0161L395.778 62.3865H395.539L395.778 62.9839H393.594L375.013 16.6135H375.253L375.013 16.0161H377.198Z" fill="white"/>
<path d="M372.801 16.0161L391.381 62.3865H391.142L391.381 62.9839H389.169L370.616 16.6135H370.855L370.616 16.0161H372.801Z" fill="white"/>
<path d="M419.182 39.3133H431.493C433.366 39.3133 434.945 38.716 436.231 37.5212C437.467 36.3898 438.117 34.8064 438.183 32.7709C438.116 31.2476 437.437 29.8753 436.146 28.6541C434.784 27.3474 433.233 26.694 431.493 26.694H413.962V62.9839H411.92V24.0805H431.493C433.801 24.0805 435.834 24.9299 437.592 26.6287C439.351 28.3087 440.231 30.2408 440.231 32.425C440.231 32.5364 440.229 32.6469 440.226 32.7565C440.229 32.8447 440.231 32.9333 440.231 33.0223C440.231 35.7105 439.38 37.8666 437.678 39.4907C435.976 41.1148 433.914 41.9268 431.493 41.9268H419.182V39.3133Z" fill="white"/>
<path d="M419.182 43.3455H431.493C434.444 43.3455 436.978 42.3281 439.096 40.2934C441.142 38.3096 442.2 35.7944 442.27 32.7479C442.199 30.1173 441.113 27.8007 439.011 25.7979C436.855 23.7072 434.349 22.6618 431.493 22.6618H409.877V62.9839H407.835V20.0483H431.493C433.744 20.0483 435.853 20.6177 437.819 21.7564C439.805 22.8951 441.384 24.4259 442.557 26.3486C443.729 28.2527 444.316 30.2782 444.316 32.425C444.316 32.5325 444.315 32.6396 444.312 32.7461C444.315 32.8379 444.316 32.93 444.316 33.0223C444.316 36.6999 443.049 39.78 440.514 42.2628C437.999 44.7269 434.992 45.959 431.493 45.959H419.182V43.3455Z" fill="white"/>
<path d="M419.182 47.3777H431.493C434.141 47.3777 436.6 46.7337 438.869 45.4456C441.138 44.1576 442.954 42.3655 444.316 40.0694C445.626 37.8418 446.306 35.3981 446.355 32.7383C446.306 30.3246 445.626 28.0578 444.316 25.938C442.973 23.7165 441.157 21.9431 438.869 20.6177C436.581 19.2923 434.122 18.6296 431.493 18.6296H405.792V62.9839H403.75V16.0161H431.493C434.463 16.0161 437.252 16.7721 439.862 18.2842C442.472 19.7776 444.543 21.7937 446.074 24.3325C447.625 26.8527 448.401 29.5501 448.401 32.425C448.401 32.5336 448.4 32.6418 448.398 32.7496C448.4 32.8404 448.401 32.9312 448.401 33.0223C448.401 36.3452 447.672 39.2667 446.216 41.7868C444.812 44.2484 442.912 46.1846 440.516 47.5954L445.621 62.3865H445.414L445.621 62.9839H443.465L438.415 48.6471C437.77 48.9019 437.256 49.0887 436.872 49.2076L441.422 62.3865H441.216L441.422 62.9839H439.266L434.642 49.7392C434.483 49.7741 433.943 49.8336 433.022 49.9175L437.224 62.3865H437.022L437.224 62.9839H435.068L430.727 49.9912H429.074L433.025 62.3865H432.835L433.025 62.9839H430.869L426.699 49.9912H419.182V47.3777Z" fill="white"/>
<path d="M418.047 30.7262H431.493C432.231 30.7262 432.846 30.9502 433.337 31.3982C433.788 31.7775 434.04 32.2441 434.093 32.7981C434.042 33.6655 433.809 34.2878 433.394 34.6651C432.94 35.0758 432.307 35.2811 431.493 35.2811H419.182V37.8946H431.493C434.595 37.8946 436.146 36.2705 436.146 33.0223C436.146 32.9418 436.144 32.862 436.139 32.783C436.144 32.6659 436.146 32.5466 436.146 32.425C436.146 31.2489 435.682 30.2408 434.756 29.4008C433.848 28.5421 432.761 28.1127 431.493 28.1127H416.005V62.9839H418.047V30.7262Z" fill="white"/>
<path fill-rule="evenodd" clip-rule="evenodd" d="M465.024 28.1127H478.953C481.203 28.1127 483.132 29.2048 484.74 31.3889C486.366 33.5544 487.179 36.1585 487.179 39.2013C487.179 39.3017 487.178 39.4015 487.177 39.5009C487.178 39.5997 487.179 39.6989 487.179 39.7987C487.179 42.8602 486.366 45.4736 484.74 47.6391C483.132 49.8045 481.203 50.8873 478.953 50.8873H465.024V28.1127ZM467.067 48.2738H478.953C480.636 48.2738 482.073 47.3871 483.265 45.6137C484.427 43.911 485.031 41.8728 485.077 39.499C485.031 37.1087 484.427 35.0711 483.265 33.3863C482.073 31.6129 480.636 30.7262 478.953 30.7262H467.067V48.2738Z" fill="white"/>
<path fill-rule="evenodd" clip-rule="evenodd" d="M460.939 24.0805H478.953C481.165 24.0805 483.227 24.7526 485.137 26.0966C487.047 27.4407 488.56 29.2795 489.676 31.6129C490.81 33.9277 491.378 36.4572 491.378 39.2013C491.378 39.3008 491.377 39.4001 491.375 39.4991C491.377 39.5987 491.378 39.6985 491.378 39.7987C491.378 42.5242 490.81 45.0536 489.676 47.3871C488.56 49.7205 487.047 51.5593 485.137 52.9034C483.227 54.2474 481.165 54.9195 478.953 54.9195H460.939V24.0805ZM462.982 52.306H478.953C481.77 52.306 484.191 51.0273 486.215 48.4698C488.2 45.9663 489.22 42.978 489.276 39.5049C489.238 37.2464 488.767 35.1509 487.86 33.2183C486.933 31.2022 485.676 29.6155 484.087 28.4581C482.518 27.282 480.806 26.694 478.953 26.694H462.982V52.306Z" fill="white"/>
<path fill-rule="evenodd" clip-rule="evenodd" d="M456.854 20.0483H478.953C481.903 20.0483 484.655 20.907 487.208 22.6245C489.761 24.3232 491.794 26.6473 493.307 29.5968C494.82 32.5463 495.576 35.7478 495.576 39.2013C495.576 39.3011 495.576 39.4007 495.574 39.5C495.576 39.5994 495.576 39.6989 495.576 39.7987C495.576 43.2522 494.82 46.4537 493.307 49.4032C491.794 52.3527 489.761 54.6861 487.208 56.4035C484.655 58.1023 481.903 58.9517 478.953 58.9517H456.854V20.0483ZM458.897 56.3382H478.953C481.544 56.3382 483.945 55.5728 486.158 54.0421C488.39 52.5113 490.167 50.4299 491.491 47.7978C492.772 45.2507 493.433 42.485 493.475 39.5009C493.433 36.5342 492.772 33.7773 491.491 31.2302C490.167 28.5794 488.39 26.4887 486.158 24.9579C483.926 23.4272 481.525 22.6618 478.953 22.6618H458.897V56.3382Z" fill="white"/>
<path fill-rule="evenodd" clip-rule="evenodd" d="M499.775 39.2013C499.775 39.2997 499.774 39.3979 499.773 39.496C499.774 39.5967 499.775 39.6976 499.775 39.7987C499.775 42.9348 499.207 45.9403 498.072 48.8152C496.957 51.6713 495.463 54.1354 493.59 56.2075C491.718 58.2796 489.496 59.9317 486.924 61.1638C484.371 62.3772 481.714 62.9839 478.953 62.9839H452.769V16.0161H478.953C482.64 16.0161 486.082 17.0522 489.279 19.1243C492.475 21.1964 495.018 24.0152 496.909 27.5807C498.82 31.1462 499.775 35.0198 499.775 39.2013ZM454.812 60.3704H478.953C481.43 60.3704 483.822 59.8104 486.13 58.6903C488.437 57.5703 490.432 56.0675 492.115 54.1821C493.798 52.2967 495.141 50.0472 496.143 47.4337C497.129 44.8935 497.639 42.2489 497.673 39.5C497.639 36.7518 497.129 34.1165 496.143 31.5943C495.141 28.9808 493.798 26.7313 492.115 24.8459C490.432 22.9418 488.437 21.4297 486.13 20.3097C483.822 19.1896 481.43 18.6296 478.953 18.6296H454.812V60.3704Z" fill="white"/>
<path d="M529.976 28.1244L530.44 27.7767C528.511 26.6567 525.636 26.0966 521.816 26.0966C517.75 26.0966 515.717 27.4407 515.717 30.1288C515.717 30.2366 515.72 30.3425 515.725 30.4465C515.72 30.5381 515.717 30.6313 515.717 30.7262C515.717 31.9396 516.039 32.9197 516.682 33.6664C517.325 34.3944 518.374 34.7584 519.831 34.7584H523.263C526.213 34.7584 528.766 35.4118 530.922 36.7185C533.097 38.0253 534.714 39.7333 535.773 41.8428C536.789 43.849 537.318 46.0874 537.359 48.5578C537.325 50.4108 536.957 52.1456 536.255 53.7621C535.537 55.4608 534.497 56.9542 533.135 58.2423C531.792 59.5304 530.071 60.5478 527.972 61.2945C525.892 62.0225 523.556 62.3865 520.965 62.3865C517.656 62.3865 514.545 61.9198 511.632 60.9865C508.739 60.0344 506.328 58.6997 504.398 56.9822L502.753 58.1863C502.873 58.2976 502.995 58.4075 503.119 58.5159L502.753 58.7837C504.871 60.7438 507.519 62.2652 510.696 63.3479C513.892 64.4493 517.315 65 520.965 65C523.291 65 525.447 64.72 527.433 64.16C529.438 63.6186 531.159 62.8626 532.596 61.8918C534.052 60.9024 535.291 59.7357 536.312 58.3917C537.352 57.0476 538.128 55.5728 538.638 53.9674C539.149 52.362 539.404 50.6632 539.404 48.8712C539.404 48.7689 539.404 48.6669 539.402 48.5652C539.404 48.4684 539.404 48.3712 539.404 48.2738C539.404 46.071 539.054 44.0082 538.355 42.0855C537.655 40.144 536.643 38.4359 535.319 36.9612C533.996 35.4678 532.303 34.2917 530.242 33.433C528.199 32.5743 525.901 32.1449 523.348 32.1449H519.831C519.017 32.1449 518.459 31.9676 518.157 31.6129C517.911 31.3245 517.765 30.9436 517.719 30.47C517.784 29.9569 518.053 29.5476 518.526 29.2421C519.093 28.8874 520.19 28.7101 521.816 28.7101C525.145 28.7101 527.471 29.0088 528.795 29.6061L530.44 28.3741C530.291 28.2875 530.136 28.2043 529.976 28.1244Z" fill="white"/>
<path d="M519.831 36.1772H523.064C526.904 36.1772 529.901 37.3346 532.057 39.6493C534.232 41.9641 535.319 44.8389 535.319 48.2738C535.319 48.371 535.318 48.4678 535.316 48.5641C535.318 48.6659 535.319 48.7683 535.319 48.8712C535.319 52.362 534.062 55.2555 531.546 57.5516C529.031 59.8291 525.504 60.9678 520.965 60.9678C517.939 60.9678 515.112 60.5571 512.483 59.7357C509.855 58.9143 507.67 57.757 505.93 56.2635L506.298 55.9717C506.174 55.8715 506.051 55.7696 505.93 55.6662L507.519 54.4061C509.07 55.6568 511.018 56.6276 513.363 57.3183C515.727 58.009 518.261 58.3543 520.965 58.3543C524.956 58.3543 528 57.4116 530.1 55.5262C532.149 53.7024 533.206 51.3808 533.273 48.5614C533.212 45.7878 532.325 43.4829 530.61 41.6468C528.851 39.7427 526.327 38.7906 523.036 38.7906H519.831C517.069 38.7906 514.999 38.0439 513.618 36.5505C512.237 35.0571 511.547 33.1157 511.547 30.7262C511.547 30.6311 511.549 30.5367 511.551 30.443C511.549 30.3392 511.547 30.2344 511.547 30.1288C511.547 27.7394 512.398 25.798 514.1 24.3045C515.821 22.8111 518.393 22.0644 521.816 22.0644C524.218 22.0644 526.45 22.3444 528.511 22.9045C530.572 23.4458 532.275 24.2299 533.617 25.2566L533.216 25.562C533.353 25.6571 533.487 25.7544 533.617 25.854L532 27.086C529.636 25.4806 526.242 24.6779 521.816 24.6779C518.961 24.6779 516.871 25.2379 515.547 26.358C514.309 27.4031 513.658 28.7675 513.595 30.4513C513.649 32.1313 514.129 33.4892 515.036 34.5251C516.02 35.6265 517.618 36.1772 519.831 36.1772Z" fill="white"/>
<path d="M519.831 40.2094H522.951C525.712 40.2094 527.783 40.9654 529.164 42.4775C530.544 43.9896 531.234 45.9217 531.234 48.2738C531.234 48.3694 531.233 48.4643 531.23 48.5585C531.233 48.6619 531.234 48.7661 531.234 48.8712C531.234 51.2606 530.374 53.202 528.653 54.6955C526.951 56.1889 524.388 56.9356 520.965 56.9356C518.563 56.9356 516.322 56.6649 514.242 56.1235C512.181 55.5635 510.479 54.7701 509.136 53.7434L509.537 53.4381C509.4 53.3429 509.266 53.2456 509.136 53.146L510.753 51.914C513.117 53.5194 516.521 54.3221 520.965 54.3221C523.821 54.3221 525.901 53.7714 527.206 52.67C528.462 51.6076 529.122 50.2345 529.187 48.5506C529.131 46.8878 528.641 45.5385 527.717 44.5029C526.733 43.3829 525.135 42.8228 522.923 42.8228H519.831C515.954 42.8228 512.918 41.6841 510.724 39.4067C508.55 37.1105 507.462 34.2171 507.462 30.7262C507.462 30.6298 507.463 30.5339 507.465 30.4384C507.463 30.3357 507.462 30.2325 507.462 30.1288C507.462 26.638 508.72 23.7538 511.235 21.4764C513.75 19.1803 517.277 18.0322 521.816 18.0322C524.842 18.0322 527.66 18.4429 530.27 19.2643C532.899 20.0857 535.083 21.243 536.823 22.7365L536.455 23.0283C536.58 23.1285 536.702 23.2304 536.823 23.3338L535.234 24.5939C533.683 23.3432 531.736 22.3724 529.39 21.6817C527.045 20.991 524.521 20.6457 521.816 20.6457C517.826 20.6457 514.772 21.5884 512.654 23.4738C510.623 25.2977 509.574 27.6194 509.508 30.439C509.569 33.2306 510.457 35.5447 512.171 37.3812C513.949 39.2667 516.502 40.2094 519.831 40.2094Z" fill="white"/>
<path d="M519.831 44.2416H522.951C524.407 44.2416 525.457 44.6149 526.1 45.3616C526.743 46.1083 527.064 47.0791 527.064 48.2738C527.064 48.3695 527.062 48.4635 527.057 48.5557C527.062 48.6591 527.064 48.7642 527.064 48.8712C527.064 51.5593 525.031 52.9034 520.965 52.9034C517.126 52.9034 514.242 52.3433 512.313 51.2233L512.777 50.8756C512.617 50.7957 512.462 50.7125 512.313 50.6259L513.958 49.3938C515.282 49.9912 517.618 50.2899 520.965 50.2899C522.592 50.2899 523.679 50.1126 524.228 49.7579C524.714 49.4536 524.992 49.0463 525.061 48.5361C525.012 48.0764 524.857 47.7028 524.596 47.4151C524.294 47.0417 523.726 46.855 522.894 46.855H519.831C517.221 46.855 514.857 46.435 512.739 45.595C510.639 44.7549 508.909 43.5975 507.547 42.1228C506.205 40.6481 505.174 38.94 504.455 36.9985C503.737 35.0571 503.377 32.9663 503.377 30.7262C503.377 30.629 503.378 30.532 503.38 30.4353C503.378 30.3335 503.377 30.2313 503.377 30.1288C503.377 28.3367 503.633 26.638 504.143 25.0326C504.654 23.4272 505.42 21.9524 506.441 20.6083C507.481 19.2643 508.72 18.1069 510.157 17.1362C511.613 16.1468 513.334 15.3814 515.32 14.84C517.325 14.28 519.49 14 521.816 14C525.466 14 528.88 14.5507 532.057 15.6521C535.234 16.7348 537.882 18.2562 540 20.2163L539.634 20.4841C539.758 20.5925 539.88 20.7024 540 20.8137L538.355 22.0178C536.426 20.3003 534.014 18.9749 531.121 18.0415C528.227 17.0895 525.126 16.6135 521.816 16.6135C519.225 16.6135 516.88 16.9868 514.781 17.7335C512.701 18.4616 510.98 19.4696 509.618 20.7577C508.275 22.0458 507.235 23.5392 506.498 25.2379C505.814 26.854 505.456 28.5885 505.422 30.4412C505.463 32.9489 506.002 35.2155 507.037 37.2412C508.115 39.3507 509.76 41.0494 511.973 42.3375C514.185 43.6069 516.805 44.2416 519.831 44.2416Z" fill="white"/>
<path d="M192.744 38.716H180.432V41.3294H192.744C195.164 41.3294 197.226 40.5174 198.928 38.8933C200.63 37.2692 201.481 35.1131 201.481 32.425C201.481 32.3359 201.479 32.2473 201.477 32.1591C201.479 32.0495 201.481 31.939 201.481 31.8276C201.481 29.6435 200.602 27.7114 198.843 26.0313C197.084 24.3325 195.051 23.4832 192.744 23.4832H173.17V62.3865H175.212V26.0966H192.744C194.484 26.0966 196.034 26.75 197.396 28.0567C198.687 29.278 199.366 30.6503 199.433 32.1736C199.367 34.209 198.717 35.7925 197.481 36.9239C196.195 38.1186 194.616 38.716 192.744 38.716Z" fill="white"/>
<path d="M192.744 42.7482H180.432V45.3616H192.744C196.242 45.3616 199.249 44.1296 201.765 41.6654C204.299 39.1827 205.566 36.1025 205.566 32.425C205.566 32.3327 205.565 32.2406 205.563 32.1487C205.565 32.0422 205.566 31.9352 205.566 31.8276C205.566 29.6808 204.98 27.6554 203.807 25.7513C202.635 23.8285 201.055 22.2978 199.07 21.159C197.103 20.0203 194.994 19.451 192.744 19.451H169.085V62.3865H171.127V22.0644H192.744C195.599 22.0644 198.105 23.1098 200.261 25.2006C202.363 27.2033 203.449 29.52 203.52 32.1505C203.45 35.1971 202.392 37.7122 200.346 39.696C198.228 41.7308 195.694 42.7482 192.744 42.7482Z" fill="white"/>
<path d="M192.744 46.7804H180.432V49.3938H187.949L192.12 62.3865H194.275L194.085 61.7892H194.275L190.324 49.3938H191.978L196.318 62.3865H198.474L198.273 61.7892H198.474L194.272 49.3202C195.193 49.2362 195.733 49.1768 195.892 49.1418L200.516 62.3865H202.672L202.466 61.7892H202.672L198.122 48.6103C198.506 48.4913 199.02 48.3045 199.665 48.0498L204.715 62.3865H206.871L206.665 61.7892H206.871L201.766 46.998C204.162 45.5872 206.063 43.651 207.467 41.1894C208.923 38.6693 209.651 35.7478 209.651 32.425C209.651 32.3339 209.65 32.243 209.648 32.1522C209.65 32.0445 209.651 31.9362 209.651 31.8276C209.651 28.9528 208.875 26.2553 207.325 23.7352C205.793 21.1964 203.722 19.1803 201.112 17.6869C198.502 16.1748 195.713 15.4187 192.744 15.4187H165V62.3865H167.042V18.0322H192.744C195.372 18.0322 197.831 18.6949 200.119 20.0203C202.408 21.3457 204.223 23.1191 205.566 25.3406C206.876 27.4604 207.556 29.7272 207.605 32.1409C207.556 34.8007 206.876 37.2444 205.566 39.472C204.204 41.7681 202.389 43.5602 200.119 44.8483C197.85 46.1363 195.391 46.7804 192.744 46.7804Z" fill="white"/>
<path d="M177.255 27.5154V62.3865H179.297V30.1288H192.744C193.481 30.1288 194.096 30.3529 194.588 30.8009C195.039 31.1801 195.29 31.6468 195.343 32.2008C195.293 33.0681 195.06 33.6904 194.644 34.0677C194.19 34.4784 193.557 34.6837 192.744 34.6837H180.432V37.2972H192.744C195.845 37.2972 197.396 35.6731 197.396 32.425C197.396 32.3444 197.394 32.2646 197.389 32.1856C197.394 32.0686 197.396 31.9492 197.396 31.8276C197.396 30.6515 196.933 29.6435 196.006 28.8034C195.098 27.9447 194.011 27.5154 192.744 27.5154H177.255Z" fill="white"/>
<path d="M222.189 15.4187V62.3865H224.232V15.4187H222.189Z" fill="white"/>
<path d="M218.104 15.4187V62.3865H220.147V15.4187H218.104Z" fill="white"/>
<path d="M214.019 15.4187V62.3865H216.062V15.4187H214.019Z" fill="white"/>
<path d="M250.046 51.7086H228.317V44.2416H239.465V41.6281H228.317V40.2094H239.465V37.5959H228.317V36.1772H239.465V33.5637H228.317V26.0966H250.046V23.4832H228.317V22.0644H250.046V19.451H228.317V18.0322H250.046V15.4187H226.274V62.3865H250.046V59.7731H228.317V58.3543H250.046V55.7408H228.317V54.3221H250.046V51.7086Z" fill="white"/>
<path d="M268.466 47.8493L268.542 47.5364L259.975 15.4187H257.876L258.037 16.0161H257.876L267.578 52.11L268.542 48.1338L268.466 47.8493Z" fill="white"/>
<path d="M270.589 40.0759L270.67 39.78L264.174 15.4187H262.103L262.262 16.0161H262.103L269.62 44.2416L270.67 40.3774L270.589 40.0759Z" fill="white"/>
<path d="M272.716 32.0382L272.797 31.7436L268.429 15.4187H266.301L266.461 16.0161H266.301L271.719 36.2612L272.797 32.341L272.716 32.0382Z" fill="white"/>
<path d="M278.499 15.4187L267.124 57.813L255.748 15.4187H253.621L253.781 16.0161H253.621L266.046 62.3865H268.173L280.627 16.0161H280.466L280.627 15.4187H278.499Z" fill="white"/>
<path d="M22.7477 54.0221L21.2773 60.7101L6.48699 0H9.68725L22.7477 54.0221ZM25.9912 40.9758L24.3911 47.4754L12.9307 0H16.0877L25.9912 40.9758ZM29.2347 27.4585L27.5914 34.0523L19.3312 0H22.5747L29.2347 27.4585ZM41.56 77.9952H38.3165L57.2585 0.0941971L57.2153 0H60.502V0.0941971L68.9351 31.7444L76.6763 0H79.9198L60.9345 77.9952H57.691L49.2147 46.3921L41.56 77.9952ZM35.073 77.9952H31.8728L50.8148 0H54.015L35.073 77.9952ZM28.6293 77.9952H25.429L44.4143 0H47.5713L28.6293 77.9952ZM80.309 77.9952H77.0655L96.0075 0H99.251L80.309 77.9952ZM73.822 77.9952H70.6217L89.5638 0H92.764L73.822 77.9952ZM67.3783 77.9952H64.178L83.1633 0H86.3203L67.3783 77.9952ZM20.5854 71.3072L37.9273 0H41.1708L22.1855 77.9952H18.942L0 0H3.2435L20.5854 71.3072ZM50.858 39.7512L59.2479 71.5898L60.8913 64.8547L52.4582 33.1103L50.858 39.7512ZM54.0583 26.4694L62.4914 58.2138L64.1348 51.5729L55.7017 19.7814L54.0583 26.4694ZM57.2585 13.2818L65.7349 45.0262L67.335 38.3382L58.9452 6.4996L57.2585 13.2818Z" fill="white"/>
<path d="M22.7477 55.0268L21.2773 61.7148L6.48699 1.00477H9.68725L22.7477 55.0268ZM25.9912 41.9805L24.3911 48.4801L12.9307 1.00477H16.0877L25.9912 41.9805ZM29.2347 28.4632L27.5914 35.057L19.3312 1.00477H22.5747L29.2347 28.4632ZM41.56 79H38.3165L57.2585 1.09897L57.2153 1.00477H60.502V1.09897L68.9351 32.7492L76.6763 1.00477H79.9198L60.9345 79H57.691L49.2147 47.3969L41.56 79ZM35.073 79H31.8728L50.8148 1.00477H54.015L35.073 79ZM28.6293 79H25.429L44.4143 1.00477H47.5713L28.6293 79ZM80.309 79H77.0655L96.0075 1.00477H99.251L80.309 79ZM73.822 79H70.6217L89.5638 1.00477H92.764L73.822 79ZM67.3783 79H64.178L83.1633 1.00477H86.3203L67.3783 79ZM20.5854 72.312L37.9273 1.00477H41.1708L22.1855 79H18.942L0 1.00477H3.2435L20.5854 72.312ZM50.858 40.756L59.2479 72.5946L60.8913 65.8595L52.4582 34.1151L50.858 40.756ZM54.0583 27.4742L62.4914 59.2186L64.1348 52.5777L55.7017 20.7862L54.0583 27.4742ZM57.2585 14.2866L65.7349 46.031L67.335 39.343L58.9452 7.50437L57.2585 14.2866Z" fill="white"/>
<path d="M61.4967 54.0221L60.0263 60.7101L45.236 0H48.4362L61.4967 54.0221ZM64.7402 40.9758L63.1401 47.4754L51.6797 0H54.8367L64.7402 40.9758ZM67.9837 27.4585L66.3403 34.0523L58.0802 0H61.3237L67.9837 27.4585ZM80.309 77.9952H77.0655L96.0075 0.0941971L95.9643 0H99.251V0.0941971L107.684 31.7444L115.425 0H118.669L99.6835 77.9952H96.44L87.9636 46.3921L80.309 77.9952ZM73.822 77.9952H70.6217L89.5638 0H92.764L73.822 77.9952ZM67.3783 77.9952H64.178L83.1633 0H86.3203L67.3783 77.9952ZM119.058 77.9952H115.814L134.757 0H138L119.058 77.9952ZM112.571 77.9952H109.371L128.313 0H131.513L112.571 77.9952ZM106.127 77.9952H102.927L121.912 0H125.069L106.127 77.9952ZM59.3344 71.3072L76.6763 0H79.9198L60.9345 77.9952H57.691L38.749 0H41.9925L59.3344 71.3072ZM89.607 39.7512L97.9969 71.5898L99.6402 64.8547L91.2071 33.1103L89.607 39.7512ZM92.8073 26.4694L101.24 58.2138L102.884 51.5729L94.4506 19.7814L92.8073 26.4694ZM96.0075 13.2818L104.484 45.0262L106.084 38.3382L97.6941 6.4996L96.0075 13.2818Z" fill="white"/>
<path d="M61.4967 55.0268L60.0263 61.7148L45.236 1.00477H48.4362L61.4967 55.0268ZM64.7402 41.9805L63.1401 48.4801L51.6797 1.00477H54.8367L64.7402 41.9805ZM67.9837 28.4632L66.3403 35.057L58.0802 1.00477H61.3237L67.9837 28.4632ZM80.309 79H77.0655L96.0075 1.09897L95.9643 1.00477H99.251V1.09897L107.684 32.7492L115.425 1.00477H118.669L99.6835 79H96.44L87.9636 47.3969L80.309 79ZM73.822 79H70.6217L89.5638 1.00477H92.764L73.822 79ZM67.3783 79H64.178L83.1633 1.00477H86.3203L67.3783 79ZM119.058 79H115.814L134.757 1.00477H138L119.058 79ZM112.571 79H109.371L128.313 1.00477H131.513L112.571 79ZM106.127 79H102.927L121.912 1.00477H125.069L106.127 79ZM59.3344 72.312L76.6763 1.00477H79.9198L60.9345 79H57.691L38.749 1.00477H41.9925L59.3344 72.312ZM89.607 40.756L97.9969 72.5946L99.6402 65.8595L91.2071 34.1151L89.607 40.756ZM92.8073 27.4742L101.24 59.2186L102.884 52.5777L94.4506 20.7862L92.8073 27.4742ZM96.0075 14.2866L104.484 46.031L106.084 39.343L97.6941 7.50437L96.0075 14.2866Z" fill="white"/>
</svg>
