<svg width="656" height="85" viewBox="0 0 656 85" fill="none" xmlns="http://www.w3.org/2000/svg">
<path d="M25.8594 42.375H46.2031C49.2969 42.375 51.9062 41.375 54.0312 39.375C56.1875 37.375 57.2656 34.5312 57.2656 30.8438C57.2656 28.125 56.1406 25.6875 53.8906 23.5312C51.6406 21.3438 49.0781 20.25 46.2031 20.25H17.2344V81H13.8594V16.875H46.2031C50.0156 16.875 53.375 18.2969 56.2812 21.1406C59.1875 23.9531 60.6406 27.1875 60.6406 30.8438C60.6406 35.3438 59.2344 38.9531 56.4219 41.6719C53.6094 44.3906 50.2031 45.75 46.2031 45.75H25.8594V42.375ZM25.8594 49.125H46.2031C51.0781 49.125 55.2656 47.4219 58.7656 44.0156C62.2656 40.5781 64.0156 36.1875 64.0156 30.8438C64.0156 26.25 62.2188 22.2188 58.625 18.75C55.0625 15.25 50.9219 13.5 46.2031 13.5H10.4844V81H7.10938V10.125H46.2031C49.9219 10.125 53.4062 11.0781 56.6562 12.9844C59.9375 14.8906 62.5469 17.4531 64.4844 20.6719C66.4219 23.8594 67.3906 27.25 67.3906 30.8438C67.3906 37 65.2969 42.1562 61.1094 46.3125C56.9531 50.4375 51.9844 52.5 46.2031 52.5H25.8594V49.125ZM25.8594 55.875H46.2031C50.5781 55.875 54.6406 54.7969 58.3906 52.6406C62.1406 50.4844 65.1406 47.4844 67.3906 43.6406C69.6406 39.7656 70.7656 35.5 70.7656 30.8438C70.7656 26.625 69.6406 22.6719 67.3906 18.9844C65.1719 15.2656 62.1719 12.2969 58.3906 10.0781C54.6094 7.85938 50.5469 6.75 46.2031 6.75H3.73438V81H0.359375V3.375H46.2031C51.1094 3.375 55.7188 4.64062 60.0312 7.17188C64.3438 9.67188 67.7656 13.0469 70.2969 17.2969C72.8594 21.5156 74.1406 26.0312 74.1406 30.8438C74.1406 36.4062 72.9375 41.2969 70.5312 45.5156C68.1562 49.7344 64.9219 53.0312 60.8281 55.4062L69.5469 81H65.9844L57.6406 57C56.3906 57.5 55.4375 57.8438 54.7812 58.0312L62.6094 81H59.0469L51.4062 58.8281C51.125 58.8906 50.125 59 48.4062 59.1562L55.6719 81H52.1094L44.9375 59.25H41.8906L48.7344 81H45.1719L38.2812 59.25H25.8594V55.875ZM23.9844 81H20.6094V23.625H46.2031C48.2969 23.625 50.0938 24.3438 51.5938 25.7812C53.125 27.1875 53.8906 28.875 53.8906 30.8438C53.8906 36.2812 51.3281 39 46.2031 39H25.8594V35.625H46.2031C47.5469 35.625 48.5938 35.2812 49.3438 34.5938C50.125 33.875 50.5156 32.625 50.5156 30.8438C50.5156 29.75 50.0938 28.8438 49.25 28.125C48.4375 27.375 47.4219 27 46.2031 27H23.9844V81Z" fill="white"/>
<path d="M98.2344 81H94.8594V3.375H98.2344V81ZM91.4844 81H88.1094V3.375H91.4844V81ZM84.7344 81H81.3594V3.375H84.7344V81ZM104.984 64.125H140.891V67.5H104.984V70.875H140.891V74.25H104.984V77.625H140.891V81H101.609V3.375H140.891V6.75H104.984V10.125H140.891V13.5H104.984V16.875H140.891V20.25H104.984V33.75H123.406V37.125H104.984V40.5H123.406V43.875H104.984V47.25H123.406V50.625H104.984V64.125Z" fill="white"/>
<path d="M171.453 57.1406L169.859 63.7969L153.828 3.375H157.297L171.453 57.1406ZM174.969 44.1562L173.234 50.625L160.812 3.375H164.234L174.969 44.1562ZM178.484 30.7031L176.703 37.2656L167.75 3.375H171.266L178.484 30.7031ZM191.844 81H188.328L208.859 3.46875L208.812 3.375H212.375V3.46875L221.516 34.9688L229.906 3.375H233.422L212.844 81H209.328L200.141 49.5469L191.844 81ZM184.812 81H181.344L201.875 3.375H205.344L184.812 81ZM177.828 81H174.359L194.938 3.375H198.359L177.828 81ZM233.844 81H230.328L250.859 3.375H254.375L233.844 81ZM226.812 81H223.344L243.875 3.375H247.344L226.812 81ZM219.828 81H216.359L236.938 3.375H240.359L219.828 81ZM169.109 74.3438L187.906 3.375H191.422L170.844 81H167.328L146.797 3.375H150.312L169.109 74.3438ZM201.922 42.9375L211.016 74.625L212.797 67.9219L203.656 36.3281L201.922 42.9375ZM205.391 29.7188L214.531 61.3125L216.312 54.7031L207.172 23.0625L205.391 29.7188ZM208.859 16.5938L218.047 48.1875L219.781 41.5312L210.688 9.84375L208.859 16.5938Z" fill="white"/>
<path d="M254.578 57.1406L252.984 63.7969L236.953 3.375H240.422L254.578 57.1406ZM258.094 44.1562L256.359 50.625L243.938 3.375H247.359L258.094 44.1562ZM261.609 30.7031L259.828 37.2656L250.875 3.375H254.391L261.609 30.7031ZM274.969 81H271.453L291.984 3.46875L291.938 3.375H295.5V3.46875L304.641 34.9688L313.031 3.375H316.547L295.969 81H292.453L283.266 49.5469L274.969 81ZM267.938 81H264.469L285 3.375H288.469L267.938 81ZM260.953 81H257.484L278.062 3.375H281.484L260.953 81ZM316.969 81H313.453L333.984 3.375H337.5L316.969 81ZM309.938 81H306.469L327 3.375H330.469L309.938 81ZM302.953 81H299.484L320.062 3.375H323.484L302.953 81ZM252.234 74.3438L271.031 3.375H274.547L253.969 81H250.453L229.922 3.375H233.438L252.234 74.3438ZM285.047 42.9375L294.141 74.625L295.922 67.9219L286.781 36.3281L285.047 42.9375ZM288.516 29.7188L297.656 61.3125L299.438 54.7031L290.297 23.0625L288.516 29.7188ZM291.984 16.5938L301.172 48.1875L302.906 41.5312L293.812 9.84375L291.984 16.5938Z" fill="white"/>
<path d="M373.688 58.2188L375.047 54.8438H386.578L387.938 58.2188H373.688ZM371.062 64.9688L372.375 61.5938H389.203L390.656 64.9688H371.062ZM368.438 71.7188L369.75 68.3438H391.875L393.281 71.7188H368.438ZM341.016 81H337.359L368.062 3.375H371.719L402.375 81H398.766L369.891 7.92188L341.016 81ZM370.312 15.9375L372.234 20.25L348.234 81H344.625L370.312 15.9375ZM374.062 24.8438L375.844 29.4844L355.547 81H351.891L374.062 24.8438ZM377.625 34.125L379.406 38.8594L362.766 81H359.156L377.625 34.125ZM424.172 81H420.516L389.859 3.375H393.469L424.172 81ZM386.203 3.375L416.906 81H413.297L382.594 3.375H386.203ZM378.938 3.375L409.641 81H405.984L375.328 3.375H378.938Z" fill="white"/>
<path d="M455.578 42.375H475.922C479.016 42.375 481.625 41.375 483.75 39.375C485.906 37.375 486.984 34.5312 486.984 30.8438C486.984 28.125 485.859 25.6875 483.609 23.5312C481.359 21.3438 478.797 20.25 475.922 20.25H446.953V81H443.578V16.875H475.922C479.734 16.875 483.094 18.2969 486 21.1406C488.906 23.9531 490.359 27.1875 490.359 30.8438C490.359 35.3438 488.953 38.9531 486.141 41.6719C483.328 44.3906 479.922 45.75 475.922 45.75H455.578V42.375ZM455.578 49.125H475.922C480.797 49.125 484.984 47.4219 488.484 44.0156C491.984 40.5781 493.734 36.1875 493.734 30.8438C493.734 26.25 491.938 22.2188 488.344 18.75C484.781 15.25 480.641 13.5 475.922 13.5H440.203V81H436.828V10.125H475.922C479.641 10.125 483.125 11.0781 486.375 12.9844C489.656 14.8906 492.266 17.4531 494.203 20.6719C496.141 23.8594 497.109 27.25 497.109 30.8438C497.109 37 495.016 42.1562 490.828 46.3125C486.672 50.4375 481.703 52.5 475.922 52.5H455.578V49.125ZM455.578 55.875H475.922C480.297 55.875 484.359 54.7969 488.109 52.6406C491.859 50.4844 494.859 47.4844 497.109 43.6406C499.359 39.7656 500.484 35.5 500.484 30.8438C500.484 26.625 499.359 22.6719 497.109 18.9844C494.891 15.2656 491.891 12.2969 488.109 10.0781C484.328 7.85938 480.266 6.75 475.922 6.75H433.453V81H430.078V3.375H475.922C480.828 3.375 485.438 4.64062 489.75 7.17188C494.062 9.67188 497.484 13.0469 500.016 17.2969C502.578 21.5156 503.859 26.0312 503.859 30.8438C503.859 36.4062 502.656 41.2969 500.25 45.5156C497.875 49.7344 494.641 53.0312 490.547 55.4062L499.266 81H495.703L487.359 57C486.109 57.5 485.156 57.8438 484.5 58.0312L492.328 81H488.766L481.125 58.8281C480.844 58.8906 479.844 59 478.125 59.1562L485.391 81H481.828L474.656 59.25H471.609L478.453 81H474.891L468 59.25H455.578V55.875ZM453.703 81H450.328V23.625H475.922C478.016 23.625 479.812 24.3438 481.312 25.7812C482.844 27.1875 483.609 28.875 483.609 30.8438C483.609 36.2812 481.047 39 475.922 39H455.578V35.625H475.922C477.266 35.625 478.312 35.2812 479.062 34.5938C479.844 33.875 480.234 32.625 480.234 30.8438C480.234 29.75 479.812 28.8438 478.969 28.125C478.156 27.375 477.141 27 475.922 27H453.703V81Z" fill="white"/>
<path d="M531.328 60.75V23.625C531.328 23.625 539 23.625 554.344 23.625C558.062 23.625 561.25 25.4531 563.906 29.1094C566.594 32.7344 567.938 37.0938 567.938 42.1875C567.938 47.3125 566.594 51.6875 563.906 55.3125C561.25 58.9375 558.062 60.75 554.344 60.75H531.328ZM534.703 57.375H554.344C557.125 57.375 559.5 55.8906 561.469 52.9219C563.469 49.9531 564.469 46.375 564.469 42.1875C564.469 37.9688 563.469 34.3906 561.469 31.4531C559.5 28.4844 557.125 27 554.344 27H534.703V57.375ZM527.953 64.125H554.344C559 64.125 563 61.9844 566.344 57.7031C569.719 53.3906 571.406 48.2188 571.406 42.1875C571.406 38.2188 570.625 34.5469 569.062 31.1719C567.531 27.7969 565.453 25.1406 562.828 23.2031C560.234 21.2344 557.406 20.25 554.344 20.25H527.953V64.125ZM524.578 67.5V16.875H554.344C558 16.875 561.406 18 564.562 20.25C567.719 22.5 570.219 25.5781 572.062 29.4844C573.938 33.3594 574.875 37.5938 574.875 42.1875C574.875 46.75 573.938 50.9844 572.062 54.8906C570.219 58.7969 567.719 61.875 564.562 64.125C561.406 66.375 558 67.5 554.344 67.5H524.578ZM521.203 70.875H554.344C558.625 70.875 562.594 69.5938 566.25 67.0312C569.938 64.4688 572.875 60.9844 575.062 56.5781C577.25 52.1719 578.344 47.375 578.344 42.1875C578.344 37.0312 577.25 32.25 575.062 27.8438C572.875 23.4062 569.938 19.9062 566.25 17.3438C562.562 14.7812 558.594 13.5 554.344 13.5H521.203V70.875ZM517.828 74.25V10.125H554.344C559.219 10.125 563.766 11.5625 567.984 14.4375C572.203 17.2812 575.562 21.1719 578.062 26.1094C580.562 31.0469 581.812 36.4062 581.812 42.1875C581.812 47.9688 580.562 53.3281 578.062 58.2656C575.562 63.2031 572.203 67.1094 567.984 69.9844C563.766 72.8281 559.219 74.25 554.344 74.25H517.828ZM514.453 77.625H554.344C558.438 77.625 562.391 76.6875 566.203 74.8125C570.016 72.9375 573.312 70.4219 576.094 67.2656C578.875 64.1094 581.094 60.3438 582.75 55.9688C584.438 51.5625 585.281 46.9688 585.281 42.1875C585.281 37.4062 584.438 32.8281 582.75 28.4531C581.094 24.0781 578.875 20.3125 576.094 17.1562C573.312 13.9688 570.016 11.4375 566.203 9.5625C562.391 7.6875 558.438 6.75 554.344 6.75H514.453V77.625ZM554.344 81H511.078V3.375H554.344C560.438 3.375 566.125 5.10938 571.406 8.57812C576.688 12.0469 580.891 16.7656 584.016 22.7344C587.172 28.7031 588.75 35.1875 588.75 42.1875C588.75 47.4375 587.812 52.4688 585.938 57.2812C584.094 62.0625 581.625 66.1875 578.531 69.6562C575.438 73.125 571.766 75.8906 567.516 77.9531C563.297 79.9844 558.906 81 554.344 81Z" fill="white"/>
<path d="M627.562 33.75H621.891C619.484 33.75 617.75 33.1406 616.688 31.9219C615.625 30.6719 615.094 29.0312 615.094 27C615.094 22.5 618.453 20.25 625.172 20.25C631.484 20.25 636.234 21.1875 639.422 23.0625L636.703 25.125C634.516 24.125 630.672 23.625 625.172 23.625C622.484 23.625 620.672 23.9219 619.734 24.5156C618.828 25.1094 618.375 25.9375 618.375 27C618.375 28.0625 618.625 28.8906 619.125 29.4844C619.625 30.0781 620.547 30.375 621.891 30.375H627.703C631.922 30.375 635.719 31.0938 639.094 32.5312C642.5 33.9688 645.297 35.9375 647.484 38.4375C649.672 40.9062 651.344 43.7656 652.5 47.0156C653.656 50.2344 654.234 53.6875 654.234 57.375C654.234 60.375 653.812 63.2188 652.969 65.9062C652.125 68.5938 650.844 71.0625 649.125 73.3125C647.438 75.5625 645.391 77.5156 642.984 79.1719C640.609 80.7969 637.766 82.0625 634.453 82.9688C631.172 83.9062 627.609 84.375 623.766 84.375C617.734 84.375 612.078 83.4531 606.797 81.6094C601.547 79.7969 597.172 77.25 593.672 73.9688L596.391 71.9531C599.578 74.8281 603.562 77.0625 608.344 78.6562C613.156 80.2188 618.297 81 623.766 81C628.047 81 631.906 80.3906 635.344 79.1719C638.812 77.9219 641.656 76.2188 643.875 74.0625C646.125 71.9062 647.844 69.4062 649.031 66.5625C650.25 63.7188 650.859 60.6562 650.859 57.375C650.859 53.0312 649.984 49.1094 648.234 45.6094C646.484 42.0781 643.812 39.2188 640.219 37.0312C636.656 34.8438 632.438 33.75 627.562 33.75ZM621.891 37.125H627.234C633.578 37.125 638.531 39.0625 642.094 42.9375C645.688 46.8125 647.484 51.625 647.484 57.375C647.484 63.2188 645.406 68.0625 641.25 71.9062C637.094 75.7188 631.266 77.625 623.766 77.625C618.766 77.625 614.094 76.9375 609.75 75.5625C605.406 74.1875 601.797 72.25 598.922 69.75L601.547 67.6406C604.109 69.7344 607.328 71.3594 611.203 72.5156C615.109 73.6719 619.297 74.25 623.766 74.25C630.359 74.25 635.391 72.6719 638.859 69.5156C642.359 66.3594 644.109 62.3125 644.109 57.375C644.109 52.5 642.641 48.4688 639.703 45.2812C636.797 42.0938 632.625 40.5 627.188 40.5H621.891C617.328 40.5 613.906 39.25 611.625 36.75C609.344 34.25 608.203 31 608.203 27C608.203 23 609.609 19.75 612.422 17.25C615.266 14.75 619.516 13.5 625.172 13.5C629.141 13.5 632.828 13.9688 636.234 14.9062C639.641 15.8125 642.453 17.125 644.672 18.8438L642 20.9062C638.094 18.2188 632.484 16.875 625.172 16.875C620.453 16.875 617 17.8125 614.812 19.6875C612.656 21.5312 611.578 23.9688 611.578 27C611.578 30.0625 612.375 32.5156 613.969 34.3594C615.594 36.2031 618.234 37.125 621.891 37.125ZM621.891 43.875H627.047C631.609 43.875 635.031 45.1406 637.312 47.6719C639.594 50.2031 640.734 53.4375 640.734 57.375C640.734 61.375 639.312 64.625 636.469 67.125C633.656 69.625 629.422 70.875 623.766 70.875C619.797 70.875 616.094 70.4219 612.656 69.5156C609.25 68.5781 606.438 67.25 604.219 65.5312L606.891 63.4688C610.797 66.1562 616.422 67.5 623.766 67.5C628.484 67.5 631.922 66.5781 634.078 64.7344C636.266 62.8594 637.359 60.4062 637.359 57.375C637.359 54.3438 636.547 51.9062 634.922 50.0625C633.297 48.1875 630.656 47.25 627 47.25H621.891C615.484 47.25 610.469 45.3438 606.844 41.5312C603.25 37.6875 601.453 32.8438 601.453 27C601.453 21.1562 603.531 16.3281 607.688 12.5156C611.844 8.67188 617.672 6.75 625.172 6.75C630.172 6.75 634.828 7.4375 639.141 8.8125C643.484 10.1875 647.094 12.125 649.969 14.625L647.344 16.7344C644.781 14.6406 641.562 13.0156 637.688 11.8594C633.812 10.7031 629.641 10.125 625.172 10.125C618.578 10.125 613.531 11.7031 610.031 14.8594C606.562 18.0156 604.828 22.0625 604.828 27C604.828 31.9062 606.297 35.9531 609.234 39.1406C612.172 42.2969 616.391 43.875 621.891 43.875ZM621.891 50.625H627.047C629.453 50.625 631.188 51.25 632.25 52.5C633.312 53.75 633.844 55.375 633.844 57.375C633.844 61.875 630.484 64.125 623.766 64.125C617.422 64.125 612.656 63.1875 609.469 61.3125L612.188 59.25C614.375 60.25 618.234 60.75 623.766 60.75C626.453 60.75 628.25 60.4531 629.156 59.8594C630.094 59.2656 630.562 58.4375 630.562 57.375C630.562 56.3438 630.297 55.5312 629.766 54.9375C629.266 54.3125 628.328 54 626.953 54H621.891C617.578 54 613.672 53.2969 610.172 51.8906C606.703 50.4844 603.844 48.5469 601.594 46.0781C599.375 43.6094 597.672 40.75 596.484 37.5C595.297 34.25 594.703 30.75 594.703 27C594.703 24 595.125 21.1562 595.969 18.4688C596.812 15.7812 598.078 13.3125 599.766 11.0625C601.484 8.8125 603.531 6.875 605.906 5.25C608.312 3.59375 611.156 2.3125 614.438 1.40625C617.75 0.46875 621.328 0 625.172 0C631.203 0 636.844 0.921875 642.094 2.76562C647.344 4.57812 651.719 7.125 655.219 10.4062L652.5 12.4219C649.312 9.54688 645.328 7.32812 640.547 5.76562C635.766 4.17188 630.641 3.375 625.172 3.375C620.891 3.375 617.016 4 613.547 5.25C610.109 6.46875 607.266 8.15625 605.016 10.3125C602.797 12.4688 601.078 14.9688 599.859 17.8125C598.672 20.6562 598.078 23.7188 598.078 27C598.078 31.4062 598.969 35.375 600.75 38.9062C602.531 42.4375 605.25 45.2812 608.906 47.4375C612.562 49.5625 616.891 50.625 621.891 50.625Z" fill="white"/>
</svg>
