<svg width="138" height="79" viewBox="0 0 138 79" fill="none" xmlns="http://www.w3.org/2000/svg">
<path d="M22.7477 54.0221L21.2773 60.7101L6.48699 0H9.68725L22.7477 54.0221ZM25.9912 40.9758L24.3911 47.4754L12.9307 0H16.0877L25.9912 40.9758ZM29.2347 27.4585L27.5914 34.0523L19.3312 0H22.5747L29.2347 27.4585ZM41.56 77.9952H38.3165L57.2585 0.0941971L57.2153 0H60.502V0.0941971L68.9351 31.7444L76.6763 0H79.9198L60.9345 77.9952H57.691L49.2147 46.3921L41.56 77.9952ZM35.073 77.9952H31.8728L50.8148 0H54.015L35.073 77.9952ZM28.6293 77.9952H25.429L44.4143 0H47.5713L28.6293 77.9952ZM80.309 77.9952H77.0655L96.0075 0H99.251L80.309 77.9952ZM73.822 77.9952H70.6217L89.5638 0H92.764L73.822 77.9952ZM67.3783 77.9952H64.178L83.1633 0H86.3203L67.3783 77.9952ZM20.5854 71.3072L37.9273 0H41.1708L22.1855 77.9952H18.942L0 0H3.2435L20.5854 71.3072ZM50.858 39.7512L59.2479 71.5898L60.8913 64.8547L52.4582 33.1103L50.858 39.7512ZM54.0583 26.4694L62.4914 58.2138L64.1348 51.5729L55.7017 19.7814L54.0583 26.4694ZM57.2585 13.2818L65.7349 45.0262L67.335 38.3382L58.9452 6.4996L57.2585 13.2818Z" fill="black"/>
<path d="M22.7477 55.0268L21.2773 61.7148L6.48699 1.00477H9.68725L22.7477 55.0268ZM25.9912 41.9805L24.3911 48.4801L12.9307 1.00477H16.0877L25.9912 41.9805ZM29.2347 28.4632L27.5914 35.057L19.3312 1.00477H22.5747L29.2347 28.4632ZM41.56 79H38.3165L57.2585 1.09897L57.2153 1.00477H60.502V1.09897L68.9351 32.7492L76.6763 1.00477H79.9198L60.9345 79H57.691L49.2147 47.3969L41.56 79ZM35.073 79H31.8728L50.8148 1.00477H54.015L35.073 79ZM28.6293 79H25.429L44.4143 1.00477H47.5713L28.6293 79ZM80.309 79H77.0655L96.0075 1.00477H99.251L80.309 79ZM73.822 79H70.6217L89.5638 1.00477H92.764L73.822 79ZM67.3783 79H64.178L83.1633 1.00477H86.3203L67.3783 79ZM20.5854 72.312L37.9273 1.00477H41.1708L22.1855 79H18.942L0 1.00477H3.2435L20.5854 72.312ZM50.858 40.756L59.2479 72.5946L60.8913 65.8595L52.4582 34.1151L50.858 40.756ZM54.0583 27.4742L62.4914 59.2186L64.1348 52.5777L55.7017 20.7862L54.0583 27.4742ZM57.2585 14.2866L65.7349 46.031L67.335 39.343L58.9452 7.50437L57.2585 14.2866Z" fill="black"/>
<path d="M61.4967 54.0221L60.0263 60.7101L45.236 0H48.4362L61.4967 54.0221ZM64.7402 40.9758L63.1401 47.4754L51.6797 0H54.8367L64.7402 40.9758ZM67.9837 27.4585L66.3403 34.0523L58.0802 0H61.3237L67.9837 27.4585ZM80.309 77.9952H77.0655L96.0075 0.0941971L95.9643 0H99.251V0.0941971L107.684 31.7444L115.425 0H118.669L99.6835 77.9952H96.44L87.9636 46.3921L80.309 77.9952ZM73.822 77.9952H70.6217L89.5638 0H92.764L73.822 77.9952ZM67.3783 77.9952H64.178L83.1633 0H86.3203L67.3783 77.9952ZM119.058 77.9952H115.814L134.757 0H138L119.058 77.9952ZM112.571 77.9952H109.371L128.313 0H131.513L112.571 77.9952ZM106.127 77.9952H102.927L121.912 0H125.069L106.127 77.9952ZM59.3344 71.3072L76.6763 0H79.9198L60.9345 77.9952H57.691L38.749 0H41.9925L59.3344 71.3072ZM89.607 39.7512L97.9969 71.5898L99.6402 64.8547L91.2071 33.1103L89.607 39.7512ZM92.8073 26.4694L101.24 58.2138L102.884 51.5729L94.4506 19.7814L92.8073 26.4694ZM96.0075 13.2818L104.484 45.0262L106.084 38.3382L97.6941 6.4996L96.0075 13.2818Z" fill="black"/>
<path d="M61.4967 55.0268L60.0263 61.7148L45.236 1.00477H48.4362L61.4967 55.0268ZM64.7402 41.9805L63.1401 48.4801L51.6797 1.00477H54.8367L64.7402 41.9805ZM67.9837 28.4632L66.3403 35.057L58.0802 1.00477H61.3237L67.9837 28.4632ZM80.309 79H77.0655L96.0075 1.09897L95.9643 1.00477H99.251V1.09897L107.684 32.7492L115.425 1.00477H118.669L99.6835 79H96.44L87.9636 47.3969L80.309 79ZM73.822 79H70.6217L89.5638 1.00477H92.764L73.822 79ZM67.3783 79H64.178L83.1633 1.00477H86.3203L67.3783 79ZM119.058 79H115.814L134.757 1.00477H138L119.058 79ZM112.571 79H109.371L128.313 1.00477H131.513L112.571 79ZM106.127 79H102.927L121.912 1.00477H125.069L106.127 79ZM59.3344 72.312L76.6763 1.00477H79.9198L60.9345 79H57.691L38.749 1.00477H41.9925L59.3344 72.312ZM89.607 40.756L97.9969 72.5946L99.6402 65.8595L91.2071 34.1151L89.607 40.756ZM92.8073 27.4742L101.24 59.2186L102.884 52.5777L94.4506 20.7862L92.8073 27.4742ZM96.0075 14.2866L104.484 46.031L106.084 39.343L97.6941 7.50437L96.0075 14.2866Z" fill="black"/>
</svg>
