<svg width="656" height="117" viewBox="0 0 656 117" fill="none" xmlns="http://www.w3.org/2000/svg">
<path d="M29.8594 73.375H50.2031C53.2969 73.375 55.9062 72.375 58.0312 70.375C60.1875 68.375 61.2656 65.5312 61.2656 61.8438C61.2656 59.125 60.1406 56.6875 57.8906 54.5312C55.6406 52.3438 53.0781 51.25 50.2031 51.25H21.2344V112H17.8594V47.875H50.2031C54.0156 47.875 57.375 49.2969 60.2812 52.1406C63.1875 54.9531 64.6406 58.1875 64.6406 61.8438C64.6406 66.3438 63.2344 69.9531 60.4219 72.6719C57.6094 75.3906 54.2031 76.75 50.2031 76.75H29.8594V73.375ZM29.8594 80.125H50.2031C55.0781 80.125 59.2656 78.4219 62.7656 75.0156C66.2656 71.5781 68.0156 67.1875 68.0156 61.8438C68.0156 57.25 66.2188 53.2188 62.625 49.75C59.0625 46.25 54.9219 44.5 50.2031 44.5H14.4844V112H11.1094V41.125H50.2031C53.9219 41.125 57.4062 42.0781 60.6562 43.9844C63.9375 45.8906 66.5469 48.4531 68.4844 51.6719C70.4219 54.8594 71.3906 58.25 71.3906 61.8438C71.3906 68 69.2969 73.1562 65.1094 77.3125C60.9531 81.4375 55.9844 83.5 50.2031 83.5H29.8594V80.125ZM29.8594 86.875H50.2031C54.5781 86.875 58.6406 85.7969 62.3906 83.6406C66.1406 81.4844 69.1406 78.4844 71.3906 74.6406C73.6406 70.7656 74.7656 66.5 74.7656 61.8438C74.7656 57.625 73.6406 53.6719 71.3906 49.9844C69.1719 46.2656 66.1719 43.2969 62.3906 41.0781C58.6094 38.8594 54.5469 37.75 50.2031 37.75H7.73438V112H4.35938V34.375H50.2031C55.1094 34.375 59.7188 35.6406 64.0312 38.1719C68.3438 40.6719 71.7656 44.0469 74.2969 48.2969C76.8594 52.5156 78.1406 57.0312 78.1406 61.8438C78.1406 67.4062 76.9375 72.2969 74.5312 76.5156C72.1562 80.7344 68.9219 84.0312 64.8281 86.4062L73.5469 112H69.9844L61.6406 88C60.3906 88.5 59.4375 88.8438 58.7812 89.0312L66.6094 112H63.0469L55.4062 89.8281C55.125 89.8906 54.125 90 52.4062 90.1562L59.6719 112H56.1094L48.9375 90.25H45.8906L52.7344 112H49.1719L42.2812 90.25H29.8594V86.875ZM27.9844 112H24.6094V54.625H50.2031C52.2969 54.625 54.0938 55.3438 55.5938 56.7812C57.125 58.1875 57.8906 59.875 57.8906 61.8438C57.8906 67.2812 55.3281 70 50.2031 70H29.8594V66.625H50.2031C51.5469 66.625 52.5938 66.2812 53.3438 65.5938C54.125 64.875 54.5156 63.625 54.5156 61.8438C54.5156 60.75 54.0938 59.8438 53.25 59.125C52.4375 58.375 51.4219 58 50.2031 58H27.9844V112ZM102.234 112H98.8594V34.375H102.234V112ZM95.4844 112H92.1094V34.375H95.4844V112ZM88.7344 112H85.3594V34.375H88.7344V112ZM108.984 95.125H144.891V98.5H108.984V101.875H144.891V105.25H108.984V108.625H144.891V112H105.609V34.375H144.891V37.75H108.984V41.125H144.891V44.5H108.984V47.875H144.891V51.25H108.984V64.75H127.406V68.125H108.984V71.5H127.406V74.875H108.984V78.25H127.406V81.625H108.984V95.125ZM175.453 88.1406L173.859 94.7969L157.828 34.375H161.297L175.453 88.1406ZM178.969 75.1562L177.234 81.625L164.812 34.375H168.234L178.969 75.1562ZM182.484 61.7031L180.703 68.2656L171.75 34.375H175.266L182.484 61.7031ZM195.844 112H192.328L212.859 34.4688L212.812 34.375H216.375V34.4688L225.516 65.9688L233.906 34.375H237.422L216.844 112H213.328L204.141 80.5469L195.844 112ZM188.812 112H185.344L205.875 34.375H209.344L188.812 112ZM181.828 112H178.359L198.938 34.375H202.359L181.828 112ZM237.844 112H234.328L254.859 34.375H258.375L237.844 112ZM230.812 112H227.344L247.875 34.375H251.344L230.812 112ZM223.828 112H220.359L240.938 34.375H244.359L223.828 112ZM173.109 105.344L191.906 34.375H195.422L174.844 112H171.328L150.797 34.375H154.312L173.109 105.344ZM205.922 73.9375L215.016 105.625L216.797 98.9219L207.656 67.3281L205.922 73.9375ZM209.391 60.7188L218.531 92.3125L220.312 85.7031L211.172 54.0625L209.391 60.7188ZM212.859 47.5938L222.047 79.1875L223.781 72.5312L214.688 40.8438L212.859 47.5938Z" fill="black"/>
<path d="M29.8594 72.375H50.2031C53.2969 72.375 55.9062 71.375 58.0312 69.375C60.1875 67.375 61.2656 64.5312 61.2656 60.8438C61.2656 58.125 60.1406 55.6875 57.8906 53.5312C55.6406 51.3438 53.0781 50.25 50.2031 50.25H21.2344V111H17.8594V46.875H50.2031C54.0156 46.875 57.375 48.2969 60.2812 51.1406C63.1875 53.9531 64.6406 57.1875 64.6406 60.8438C64.6406 65.3438 63.2344 68.9531 60.4219 71.6719C57.6094 74.3906 54.2031 75.75 50.2031 75.75H29.8594V72.375ZM29.8594 79.125H50.2031C55.0781 79.125 59.2656 77.4219 62.7656 74.0156C66.2656 70.5781 68.0156 66.1875 68.0156 60.8438C68.0156 56.25 66.2188 52.2188 62.625 48.75C59.0625 45.25 54.9219 43.5 50.2031 43.5H14.4844V111H11.1094V40.125H50.2031C53.9219 40.125 57.4062 41.0781 60.6562 42.9844C63.9375 44.8906 66.5469 47.4531 68.4844 50.6719C70.4219 53.8594 71.3906 57.25 71.3906 60.8438C71.3906 67 69.2969 72.1562 65.1094 76.3125C60.9531 80.4375 55.9844 82.5 50.2031 82.5H29.8594V79.125ZM29.8594 85.875H50.2031C54.5781 85.875 58.6406 84.7969 62.3906 82.6406C66.1406 80.4844 69.1406 77.4844 71.3906 73.6406C73.6406 69.7656 74.7656 65.5 74.7656 60.8438C74.7656 56.625 73.6406 52.6719 71.3906 48.9844C69.1719 45.2656 66.1719 42.2969 62.3906 40.0781C58.6094 37.8594 54.5469 36.75 50.2031 36.75H7.73438V111H4.35938V33.375H50.2031C55.1094 33.375 59.7188 34.6406 64.0312 37.1719C68.3438 39.6719 71.7656 43.0469 74.2969 47.2969C76.8594 51.5156 78.1406 56.0312 78.1406 60.8438C78.1406 66.4062 76.9375 71.2969 74.5312 75.5156C72.1562 79.7344 68.9219 83.0312 64.8281 85.4062L73.5469 111H69.9844L61.6406 87C60.3906 87.5 59.4375 87.8438 58.7812 88.0312L66.6094 111H63.0469L55.4062 88.8281C55.125 88.8906 54.125 89 52.4062 89.1562L59.6719 111H56.1094L48.9375 89.25H45.8906L52.7344 111H49.1719L42.2812 89.25H29.8594V85.875ZM27.9844 111H24.6094V53.625H50.2031C52.2969 53.625 54.0938 54.3438 55.5938 55.7812C57.125 57.1875 57.8906 58.875 57.8906 60.8438C57.8906 66.2812 55.3281 69 50.2031 69H29.8594V65.625H50.2031C51.5469 65.625 52.5938 65.2812 53.3438 64.5938C54.125 63.875 54.5156 62.625 54.5156 60.8438C54.5156 59.75 54.0938 58.8438 53.25 58.125C52.4375 57.375 51.4219 57 50.2031 57H27.9844V111ZM102.234 111H98.8594V33.375H102.234V111ZM95.4844 111H92.1094V33.375H95.4844V111ZM88.7344 111H85.3594V33.375H88.7344V111ZM108.984 94.125H144.891V97.5H108.984V100.875H144.891V104.25H108.984V107.625H144.891V111H105.609V33.375H144.891V36.75H108.984V40.125H144.891V43.5H108.984V46.875H144.891V50.25H108.984V63.75H127.406V67.125H108.984V70.5H127.406V73.875H108.984V77.25H127.406V80.625H108.984V94.125ZM175.453 87.1406L173.859 93.7969L157.828 33.375H161.297L175.453 87.1406ZM178.969 74.1562L177.234 80.625L164.812 33.375H168.234L178.969 74.1562ZM182.484 60.7031L180.703 67.2656L171.75 33.375H175.266L182.484 60.7031ZM195.844 111H192.328L212.859 33.4688L212.812 33.375H216.375V33.4688L225.516 64.9688L233.906 33.375H237.422L216.844 111H213.328L204.141 79.5469L195.844 111ZM188.812 111H185.344L205.875 33.375H209.344L188.812 111ZM181.828 111H178.359L198.938 33.375H202.359L181.828 111ZM237.844 111H234.328L254.859 33.375H258.375L237.844 111ZM230.812 111H227.344L247.875 33.375H251.344L230.812 111ZM223.828 111H220.359L240.938 33.375H244.359L223.828 111ZM173.109 104.344L191.906 33.375H195.422L174.844 111H171.328L150.797 33.375H154.312L173.109 104.344ZM205.922 72.9375L215.016 104.625L216.797 97.9219L207.656 66.3281L205.922 72.9375ZM209.391 59.7188L218.531 91.3125L220.312 84.7031L211.172 53.0625L209.391 59.7188ZM212.859 46.5938L222.047 78.1875L223.781 71.5312L214.688 39.8438L212.859 46.5938Z" fill="black"/>
<path d="M224.578 88.1406L222.984 94.7969L206.953 34.375H210.422L224.578 88.1406ZM228.094 75.1562L226.359 81.625L213.938 34.375H217.359L228.094 75.1562ZM231.609 61.7031L229.828 68.2656L220.875 34.375H224.391L231.609 61.7031ZM244.969 112H241.453L261.984 34.4688L261.938 34.375H265.5V34.4688L274.641 65.9688L283.031 34.375H286.547L265.969 112H262.453L253.266 80.5469L244.969 112ZM237.938 112H234.469L255 34.375H258.469L237.938 112ZM230.953 112H227.484L248.062 34.375H251.484L230.953 112ZM286.969 112H283.453L303.984 34.375H307.5L286.969 112ZM279.938 112H276.469L297 34.375H300.469L279.938 112ZM272.953 112H269.484L290.062 34.375H293.484L272.953 112ZM222.234 105.344L241.031 34.375H244.547L223.969 112H220.453L199.922 34.375H203.438L222.234 105.344ZM255.047 73.9375L264.141 105.625L265.922 98.9219L256.781 67.3281L255.047 73.9375ZM258.516 60.7188L267.656 92.3125L269.438 85.7031L260.297 54.0625L258.516 60.7188ZM261.984 47.5938L271.172 79.1875L272.906 72.5312L263.812 40.8438L261.984 47.5938ZM343.688 89.2188L345.047 85.8438H356.578L357.938 89.2188H343.688ZM341.062 95.9688L342.375 92.5938H359.203L360.656 95.9688H341.062ZM338.438 102.719L339.75 99.3438H361.875L363.281 102.719H338.438ZM311.016 112H307.359L338.062 34.375H341.719L372.375 112H368.766L339.891 38.9219L311.016 112ZM340.312 46.9375L342.234 51.25L318.234 112H314.625L340.312 46.9375ZM344.062 55.8438L345.844 60.4844L325.547 112H321.891L344.062 55.8438ZM347.625 65.125L349.406 69.8594L332.766 112H329.156L347.625 65.125ZM394.172 112H390.516L359.859 34.375H363.469L394.172 112ZM356.203 34.375L386.906 112H383.297L352.594 34.375H356.203ZM348.938 34.375L379.641 112H375.984L345.328 34.375H348.938ZM425.578 73.375H445.922C449.016 73.375 451.625 72.375 453.75 70.375C455.906 68.375 456.984 65.5312 456.984 61.8438C456.984 59.125 455.859 56.6875 453.609 54.5312C451.359 52.3438 448.797 51.25 445.922 51.25H416.953V112H413.578V47.875H445.922C449.734 47.875 453.094 49.2969 456 52.1406C458.906 54.9531 460.359 58.1875 460.359 61.8438C460.359 66.3438 458.953 69.9531 456.141 72.6719C453.328 75.3906 449.922 76.75 445.922 76.75H425.578V73.375ZM425.578 80.125H445.922C450.797 80.125 454.984 78.4219 458.484 75.0156C461.984 71.5781 463.734 67.1875 463.734 61.8438C463.734 57.25 461.938 53.2188 458.344 49.75C454.781 46.25 450.641 44.5 445.922 44.5H410.203V112H406.828V41.125H445.922C449.641 41.125 453.125 42.0781 456.375 43.9844C459.656 45.8906 462.266 48.4531 464.203 51.6719C466.141 54.8594 467.109 58.25 467.109 61.8438C467.109 68 465.016 73.1562 460.828 77.3125C456.672 81.4375 451.703 83.5 445.922 83.5H425.578V80.125ZM425.578 86.875H445.922C450.297 86.875 454.359 85.7969 458.109 83.6406C461.859 81.4844 464.859 78.4844 467.109 74.6406C469.359 70.7656 470.484 66.5 470.484 61.8438C470.484 57.625 469.359 53.6719 467.109 49.9844C464.891 46.2656 461.891 43.2969 458.109 41.0781C454.328 38.8594 450.266 37.75 445.922 37.75H403.453V112H400.078V34.375H445.922C450.828 34.375 455.438 35.6406 459.75 38.1719C464.062 40.6719 467.484 44.0469 470.016 48.2969C472.578 52.5156 473.859 57.0312 473.859 61.8438C473.859 67.4062 472.656 72.2969 470.25 76.5156C467.875 80.7344 464.641 84.0312 460.547 86.4062L469.266 112H465.703L457.359 88C456.109 88.5 455.156 88.8438 454.5 89.0312L462.328 112H458.766L451.125 89.8281C450.844 89.8906 449.844 90 448.125 90.1562L455.391 112H451.828L444.656 90.25H441.609L448.453 112H444.891L438 90.25H425.578V86.875ZM423.703 112H420.328V54.625H445.922C448.016 54.625 449.812 55.3438 451.312 56.7812C452.844 58.1875 453.609 59.875 453.609 61.8438C453.609 67.2812 451.047 70 445.922 70H425.578V66.625H445.922C447.266 66.625 448.312 66.2812 449.062 65.5938C449.844 64.875 450.234 63.625 450.234 61.8438C450.234 60.75 449.812 59.8438 448.969 59.125C448.156 58.375 447.141 58 445.922 58H423.703V112ZM501.328 91.75V54.625C501.328 54.625 509 54.625 524.344 54.625C528.062 54.625 531.25 56.4531 533.906 60.1094C536.594 63.7344 537.938 68.0938 537.938 73.1875C537.938 78.3125 536.594 82.6875 533.906 86.3125C531.25 89.9375 528.062 91.75 524.344 91.75H501.328ZM504.703 88.375H524.344C527.125 88.375 529.5 86.8906 531.469 83.9219C533.469 80.9531 534.469 77.375 534.469 73.1875C534.469 68.9688 533.469 65.3906 531.469 62.4531C529.5 59.4844 527.125 58 524.344 58H504.703V88.375ZM497.953 95.125H524.344C529 95.125 533 92.9844 536.344 88.7031C539.719 84.3906 541.406 79.2188 541.406 73.1875C541.406 69.2188 540.625 65.5469 539.062 62.1719C537.531 58.7969 535.453 56.1406 532.828 54.2031C530.234 52.2344 527.406 51.25 524.344 51.25H497.953V95.125ZM494.578 98.5V47.875H524.344C528 47.875 531.406 49 534.562 51.25C537.719 53.5 540.219 56.5781 542.062 60.4844C543.938 64.3594 544.875 68.5938 544.875 73.1875C544.875 77.75 543.938 81.9844 542.062 85.8906C540.219 89.7969 537.719 92.875 534.562 95.125C531.406 97.375 528 98.5 524.344 98.5H494.578ZM491.203 101.875H524.344C528.625 101.875 532.594 100.594 536.25 98.0312C539.938 95.4688 542.875 91.9844 545.062 87.5781C547.25 83.1719 548.344 78.375 548.344 73.1875C548.344 68.0312 547.25 63.25 545.062 58.8438C542.875 54.4062 539.938 50.9062 536.25 48.3438C532.562 45.7812 528.594 44.5 524.344 44.5H491.203V101.875ZM487.828 105.25V41.125H524.344C529.219 41.125 533.766 42.5625 537.984 45.4375C542.203 48.2812 545.562 52.1719 548.062 57.1094C550.562 62.0469 551.812 67.4062 551.812 73.1875C551.812 78.9688 550.562 84.3281 548.062 89.2656C545.562 94.2031 542.203 98.1094 537.984 100.984C533.766 103.828 529.219 105.25 524.344 105.25H487.828ZM484.453 108.625H524.344C528.438 108.625 532.391 107.688 536.203 105.812C540.016 103.938 543.312 101.422 546.094 98.2656C548.875 95.1094 551.094 91.3438 552.75 86.9688C554.438 82.5625 555.281 77.9688 555.281 73.1875C555.281 68.4062 554.438 63.8281 552.75 59.4531C551.094 55.0781 548.875 51.3125 546.094 48.1562C543.312 44.9688 540.016 42.4375 536.203 40.5625C532.391 38.6875 528.438 37.75 524.344 37.75H484.453V108.625ZM524.344 112H481.078V34.375H524.344C530.438 34.375 536.125 36.1094 541.406 39.5781C546.688 43.0469 550.891 47.7656 554.016 53.7344C557.172 59.7031 558.75 66.1875 558.75 73.1875C558.75 78.4375 557.812 83.4688 555.938 88.2812C554.094 93.0625 551.625 97.1875 548.531 100.656C545.438 104.125 541.766 106.891 537.516 108.953C533.297 110.984 528.906 112 524.344 112ZM597.562 64.75H591.891C589.484 64.75 587.75 64.1406 586.688 62.9219C585.625 61.6719 585.094 60.0312 585.094 58C585.094 53.5 588.453 51.25 595.172 51.25C601.484 51.25 606.234 52.1875 609.422 54.0625L606.703 56.125C604.516 55.125 600.672 54.625 595.172 54.625C592.484 54.625 590.672 54.9219 589.734 55.5156C588.828 56.1094 588.375 56.9375 588.375 58C588.375 59.0625 588.625 59.8906 589.125 60.4844C589.625 61.0781 590.547 61.375 591.891 61.375H597.703C601.922 61.375 605.719 62.0938 609.094 63.5312C612.5 64.9688 615.297 66.9375 617.484 69.4375C619.672 71.9062 621.344 74.7656 622.5 78.0156C623.656 81.2344 624.234 84.6875 624.234 88.375C624.234 91.375 623.812 94.2188 622.969 96.9062C622.125 99.5938 620.844 102.062 619.125 104.312C617.438 106.562 615.391 108.516 612.984 110.172C610.609 111.797 607.766 113.062 604.453 113.969C601.172 114.906 597.609 115.375 593.766 115.375C587.734 115.375 582.078 114.453 576.797 112.609C571.547 110.797 567.172 108.25 563.672 104.969L566.391 102.953C569.578 105.828 573.562 108.062 578.344 109.656C583.156 111.219 588.297 112 593.766 112C598.047 112 601.906 111.391 605.344 110.172C608.812 108.922 611.656 107.219 613.875 105.062C616.125 102.906 617.844 100.406 619.031 97.5625C620.25 94.7188 620.859 91.6562 620.859 88.375C620.859 84.0312 619.984 80.1094 618.234 76.6094C616.484 73.0781 613.812 70.2188 610.219 68.0312C606.656 65.8438 602.438 64.75 597.562 64.75ZM591.891 68.125H597.234C603.578 68.125 608.531 70.0625 612.094 73.9375C615.688 77.8125 617.484 82.625 617.484 88.375C617.484 94.2188 615.406 99.0625 611.25 102.906C607.094 106.719 601.266 108.625 593.766 108.625C588.766 108.625 584.094 107.938 579.75 106.562C575.406 105.188 571.797 103.25 568.922 100.75L571.547 98.6406C574.109 100.734 577.328 102.359 581.203 103.516C585.109 104.672 589.297 105.25 593.766 105.25C600.359 105.25 605.391 103.672 608.859 100.516C612.359 97.3594 614.109 93.3125 614.109 88.375C614.109 83.5 612.641 79.4688 609.703 76.2812C606.797 73.0938 602.625 71.5 597.188 71.5H591.891C587.328 71.5 583.906 70.25 581.625 67.75C579.344 65.25 578.203 62 578.203 58C578.203 54 579.609 50.75 582.422 48.25C585.266 45.75 589.516 44.5 595.172 44.5C599.141 44.5 602.828 44.9688 606.234 45.9062C609.641 46.8125 612.453 48.125 614.672 49.8438L612 51.9062C608.094 49.2188 602.484 47.875 595.172 47.875C590.453 47.875 587 48.8125 584.812 50.6875C582.656 52.5312 581.578 54.9688 581.578 58C581.578 61.0625 582.375 63.5156 583.969 65.3594C585.594 67.2031 588.234 68.125 591.891 68.125ZM591.891 74.875H597.047C601.609 74.875 605.031 76.1406 607.312 78.6719C609.594 81.2031 610.734 84.4375 610.734 88.375C610.734 92.375 609.312 95.625 606.469 98.125C603.656 100.625 599.422 101.875 593.766 101.875C589.797 101.875 586.094 101.422 582.656 100.516C579.25 99.5781 576.438 98.25 574.219 96.5312L576.891 94.4688C580.797 97.1562 586.422 98.5 593.766 98.5C598.484 98.5 601.922 97.5781 604.078 95.7344C606.266 93.8594 607.359 91.4062 607.359 88.375C607.359 85.3438 606.547 82.9062 604.922 81.0625C603.297 79.1875 600.656 78.25 597 78.25H591.891C585.484 78.25 580.469 76.3438 576.844 72.5312C573.25 68.6875 571.453 63.8438 571.453 58C571.453 52.1562 573.531 47.3281 577.688 43.5156C581.844 39.6719 587.672 37.75 595.172 37.75C600.172 37.75 604.828 38.4375 609.141 39.8125C613.484 41.1875 617.094 43.125 619.969 45.625L617.344 47.7344C614.781 45.6406 611.562 44.0156 607.688 42.8594C603.812 41.7031 599.641 41.125 595.172 41.125C588.578 41.125 583.531 42.7031 580.031 45.8594C576.562 49.0156 574.828 53.0625 574.828 58C574.828 62.9062 576.297 66.9531 579.234 70.1406C582.172 73.2969 586.391 74.875 591.891 74.875ZM591.891 81.625H597.047C599.453 81.625 601.188 82.25 602.25 83.5C603.312 84.75 603.844 86.375 603.844 88.375C603.844 92.875 600.484 95.125 593.766 95.125C587.422 95.125 582.656 94.1875 579.469 92.3125L582.188 90.25C584.375 91.25 588.234 91.75 593.766 91.75C596.453 91.75 598.25 91.4531 599.156 90.8594C600.094 90.2656 600.562 89.4375 600.562 88.375C600.562 87.3438 600.297 86.5312 599.766 85.9375C599.266 85.3125 598.328 85 596.953 85H591.891C587.578 85 583.672 84.2969 580.172 82.8906C576.703 81.4844 573.844 79.5469 571.594 77.0781C569.375 74.6094 567.672 71.75 566.484 68.5C565.297 65.25 564.703 61.75 564.703 58C564.703 55 565.125 52.1562 565.969 49.4688C566.812 46.7812 568.078 44.3125 569.766 42.0625C571.484 39.8125 573.531 37.875 575.906 36.25C578.312 34.5938 581.156 33.3125 584.438 32.4062C587.75 31.4688 591.328 31 595.172 31C601.203 31 606.844 31.9219 612.094 33.7656C617.344 35.5781 621.719 38.125 625.219 41.4062L622.5 43.4219C619.312 40.5469 615.328 38.3281 610.547 36.7656C605.766 35.1719 600.641 34.375 595.172 34.375C590.891 34.375 587.016 35 583.547 36.25C580.109 37.4688 577.266 39.1562 575.016 41.3125C572.797 43.4688 571.078 45.9688 569.859 48.8125C568.672 51.6562 568.078 54.7188 568.078 58C568.078 62.4062 568.969 66.375 570.75 69.9062C572.531 73.4375 575.25 76.2812 578.906 78.4375C582.562 80.5625 586.891 81.625 591.891 81.625Z" fill="black"/>
<path d="M224.578 89.1406L222.984 95.7969L206.953 35.375H210.422L224.578 89.1406ZM228.094 76.1562L226.359 82.625L213.938 35.375H217.359L228.094 76.1562ZM231.609 62.7031L229.828 69.2656L220.875 35.375H224.391L231.609 62.7031ZM244.969 113H241.453L261.984 35.4688L261.938 35.375H265.5V35.4688L274.641 66.9688L283.031 35.375H286.547L265.969 113H262.453L253.266 81.5469L244.969 113ZM237.938 113H234.469L255 35.375H258.469L237.938 113ZM230.953 113H227.484L248.062 35.375H251.484L230.953 113ZM286.969 113H283.453L303.984 35.375H307.5L286.969 113ZM279.938 113H276.469L297 35.375H300.469L279.938 113ZM272.953 113H269.484L290.062 35.375H293.484L272.953 113ZM222.234 106.344L241.031 35.375H244.547L223.969 113H220.453L199.922 35.375H203.438L222.234 106.344ZM255.047 74.9375L264.141 106.625L265.922 99.9219L256.781 68.3281L255.047 74.9375ZM258.516 61.7188L267.656 93.3125L269.438 86.7031L260.297 55.0625L258.516 61.7188ZM261.984 48.5938L271.172 80.1875L272.906 73.5312L263.812 41.8438L261.984 48.5938ZM343.688 90.2188L345.047 86.8438H356.578L357.938 90.2188H343.688ZM341.062 96.9688L342.375 93.5938H359.203L360.656 96.9688H341.062ZM338.438 103.719L339.75 100.344H361.875L363.281 103.719H338.438ZM311.016 113H307.359L338.062 35.375H341.719L372.375 113H368.766L339.891 39.9219L311.016 113ZM340.312 47.9375L342.234 52.25L318.234 113H314.625L340.312 47.9375ZM344.062 56.8438L345.844 61.4844L325.547 113H321.891L344.062 56.8438ZM347.625 66.125L349.406 70.8594L332.766 113H329.156L347.625 66.125ZM394.172 113H390.516L359.859 35.375H363.469L394.172 113ZM356.203 35.375L386.906 113H383.297L352.594 35.375H356.203ZM348.938 35.375L379.641 113H375.984L345.328 35.375H348.938ZM425.578 74.375H445.922C449.016 74.375 451.625 73.375 453.75 71.375C455.906 69.375 456.984 66.5312 456.984 62.8438C456.984 60.125 455.859 57.6875 453.609 55.5312C451.359 53.3438 448.797 52.25 445.922 52.25H416.953V113H413.578V48.875H445.922C449.734 48.875 453.094 50.2969 456 53.1406C458.906 55.9531 460.359 59.1875 460.359 62.8438C460.359 67.3438 458.953 70.9531 456.141 73.6719C453.328 76.3906 449.922 77.75 445.922 77.75H425.578V74.375ZM425.578 81.125H445.922C450.797 81.125 454.984 79.4219 458.484 76.0156C461.984 72.5781 463.734 68.1875 463.734 62.8438C463.734 58.25 461.938 54.2188 458.344 50.75C454.781 47.25 450.641 45.5 445.922 45.5H410.203V113H406.828V42.125H445.922C449.641 42.125 453.125 43.0781 456.375 44.9844C459.656 46.8906 462.266 49.4531 464.203 52.6719C466.141 55.8594 467.109 59.25 467.109 62.8438C467.109 69 465.016 74.1562 460.828 78.3125C456.672 82.4375 451.703 84.5 445.922 84.5H425.578V81.125ZM425.578 87.875H445.922C450.297 87.875 454.359 86.7969 458.109 84.6406C461.859 82.4844 464.859 79.4844 467.109 75.6406C469.359 71.7656 470.484 67.5 470.484 62.8438C470.484 58.625 469.359 54.6719 467.109 50.9844C464.891 47.2656 461.891 44.2969 458.109 42.0781C454.328 39.8594 450.266 38.75 445.922 38.75H403.453V113H400.078V35.375H445.922C450.828 35.375 455.438 36.6406 459.75 39.1719C464.062 41.6719 467.484 45.0469 470.016 49.2969C472.578 53.5156 473.859 58.0312 473.859 62.8438C473.859 68.4062 472.656 73.2969 470.25 77.5156C467.875 81.7344 464.641 85.0312 460.547 87.4062L469.266 113H465.703L457.359 89C456.109 89.5 455.156 89.8438 454.5 90.0312L462.328 113H458.766L451.125 90.8281C450.844 90.8906 449.844 91 448.125 91.1562L455.391 113H451.828L444.656 91.25H441.609L448.453 113H444.891L438 91.25H425.578V87.875ZM423.703 113H420.328V55.625H445.922C448.016 55.625 449.812 56.3438 451.312 57.7812C452.844 59.1875 453.609 60.875 453.609 62.8438C453.609 68.2812 451.047 71 445.922 71H425.578V67.625H445.922C447.266 67.625 448.312 67.2812 449.062 66.5938C449.844 65.875 450.234 64.625 450.234 62.8438C450.234 61.75 449.812 60.8438 448.969 60.125C448.156 59.375 447.141 59 445.922 59H423.703V113ZM501.328 92.75V55.625C501.328 55.625 509 55.625 524.344 55.625C528.062 55.625 531.25 57.4531 533.906 61.1094C536.594 64.7344 537.938 69.0938 537.938 74.1875C537.938 79.3125 536.594 83.6875 533.906 87.3125C531.25 90.9375 528.062 92.75 524.344 92.75H501.328ZM504.703 89.375H524.344C527.125 89.375 529.5 87.8906 531.469 84.9219C533.469 81.9531 534.469 78.375 534.469 74.1875C534.469 69.9688 533.469 66.3906 531.469 63.4531C529.5 60.4844 527.125 59 524.344 59H504.703V89.375ZM497.953 96.125H524.344C529 96.125 533 93.9844 536.344 89.7031C539.719 85.3906 541.406 80.2188 541.406 74.1875C541.406 70.2188 540.625 66.5469 539.062 63.1719C537.531 59.7969 535.453 57.1406 532.828 55.2031C530.234 53.2344 527.406 52.25 524.344 52.25H497.953V96.125ZM494.578 99.5V48.875H524.344C528 48.875 531.406 50 534.562 52.25C537.719 54.5 540.219 57.5781 542.062 61.4844C543.938 65.3594 544.875 69.5938 544.875 74.1875C544.875 78.75 543.938 82.9844 542.062 86.8906C540.219 90.7969 537.719 93.875 534.562 96.125C531.406 98.375 528 99.5 524.344 99.5H494.578ZM491.203 102.875H524.344C528.625 102.875 532.594 101.594 536.25 99.0312C539.938 96.4688 542.875 92.9844 545.062 88.5781C547.25 84.1719 548.344 79.375 548.344 74.1875C548.344 69.0312 547.25 64.25 545.062 59.8438C542.875 55.4062 539.938 51.9062 536.25 49.3438C532.562 46.7812 528.594 45.5 524.344 45.5H491.203V102.875ZM487.828 106.25V42.125H524.344C529.219 42.125 533.766 43.5625 537.984 46.4375C542.203 49.2812 545.562 53.1719 548.062 58.1094C550.562 63.0469 551.812 68.4062 551.812 74.1875C551.812 79.9688 550.562 85.3281 548.062 90.2656C545.562 95.2031 542.203 99.1094 537.984 101.984C533.766 104.828 529.219 106.25 524.344 106.25H487.828ZM484.453 109.625H524.344C528.438 109.625 532.391 108.688 536.203 106.812C540.016 104.938 543.312 102.422 546.094 99.2656C548.875 96.1094 551.094 92.3438 552.75 87.9688C554.438 83.5625 555.281 78.9688 555.281 74.1875C555.281 69.4062 554.438 64.8281 552.75 60.4531C551.094 56.0781 548.875 52.3125 546.094 49.1562C543.312 45.9688 540.016 43.4375 536.203 41.5625C532.391 39.6875 528.438 38.75 524.344 38.75H484.453V109.625ZM524.344 113H481.078V35.375H524.344C530.438 35.375 536.125 37.1094 541.406 40.5781C546.688 44.0469 550.891 48.7656 554.016 54.7344C557.172 60.7031 558.75 67.1875 558.75 74.1875C558.75 79.4375 557.812 84.4688 555.938 89.2812C554.094 94.0625 551.625 98.1875 548.531 101.656C545.438 105.125 541.766 107.891 537.516 109.953C533.297 111.984 528.906 113 524.344 113ZM597.562 65.75H591.891C589.484 65.75 587.75 65.1406 586.688 63.9219C585.625 62.6719 585.094 61.0312 585.094 59C585.094 54.5 588.453 52.25 595.172 52.25C601.484 52.25 606.234 53.1875 609.422 55.0625L606.703 57.125C604.516 56.125 600.672 55.625 595.172 55.625C592.484 55.625 590.672 55.9219 589.734 56.5156C588.828 57.1094 588.375 57.9375 588.375 59C588.375 60.0625 588.625 60.8906 589.125 61.4844C589.625 62.0781 590.547 62.375 591.891 62.375H597.703C601.922 62.375 605.719 63.0938 609.094 64.5312C612.5 65.9688 615.297 67.9375 617.484 70.4375C619.672 72.9062 621.344 75.7656 622.5 79.0156C623.656 82.2344 624.234 85.6875 624.234 89.375C624.234 92.375 623.812 95.2188 622.969 97.9062C622.125 100.594 620.844 103.062 619.125 105.312C617.438 107.562 615.391 109.516 612.984 111.172C610.609 112.797 607.766 114.062 604.453 114.969C601.172 115.906 597.609 116.375 593.766 116.375C587.734 116.375 582.078 115.453 576.797 113.609C571.547 111.797 567.172 109.25 563.672 105.969L566.391 103.953C569.578 106.828 573.562 109.062 578.344 110.656C583.156 112.219 588.297 113 593.766 113C598.047 113 601.906 112.391 605.344 111.172C608.812 109.922 611.656 108.219 613.875 106.062C616.125 103.906 617.844 101.406 619.031 98.5625C620.25 95.7188 620.859 92.6562 620.859 89.375C620.859 85.0312 619.984 81.1094 618.234 77.6094C616.484 74.0781 613.812 71.2188 610.219 69.0312C606.656 66.8438 602.438 65.75 597.562 65.75ZM591.891 69.125H597.234C603.578 69.125 608.531 71.0625 612.094 74.9375C615.688 78.8125 617.484 83.625 617.484 89.375C617.484 95.2188 615.406 100.062 611.25 103.906C607.094 107.719 601.266 109.625 593.766 109.625C588.766 109.625 584.094 108.938 579.75 107.562C575.406 106.188 571.797 104.25 568.922 101.75L571.547 99.6406C574.109 101.734 577.328 103.359 581.203 104.516C585.109 105.672 589.297 106.25 593.766 106.25C600.359 106.25 605.391 104.672 608.859 101.516C612.359 98.3594 614.109 94.3125 614.109 89.375C614.109 84.5 612.641 80.4688 609.703 77.2812C606.797 74.0938 602.625 72.5 597.188 72.5H591.891C587.328 72.5 583.906 71.25 581.625 68.75C579.344 66.25 578.203 63 578.203 59C578.203 55 579.609 51.75 582.422 49.25C585.266 46.75 589.516 45.5 595.172 45.5C599.141 45.5 602.828 45.9688 606.234 46.9062C609.641 47.8125 612.453 49.125 614.672 50.8438L612 52.9062C608.094 50.2188 602.484 48.875 595.172 48.875C590.453 48.875 587 49.8125 584.812 51.6875C582.656 53.5312 581.578 55.9688 581.578 59C581.578 62.0625 582.375 64.5156 583.969 66.3594C585.594 68.2031 588.234 69.125 591.891 69.125ZM591.891 75.875H597.047C601.609 75.875 605.031 77.1406 607.312 79.6719C609.594 82.2031 610.734 85.4375 610.734 89.375C610.734 93.375 609.312 96.625 606.469 99.125C603.656 101.625 599.422 102.875 593.766 102.875C589.797 102.875 586.094 102.422 582.656 101.516C579.25 100.578 576.438 99.25 574.219 97.5312L576.891 95.4688C580.797 98.1562 586.422 99.5 593.766 99.5C598.484 99.5 601.922 98.5781 604.078 96.7344C606.266 94.8594 607.359 92.4062 607.359 89.375C607.359 86.3438 606.547 83.9062 604.922 82.0625C603.297 80.1875 600.656 79.25 597 79.25H591.891C585.484 79.25 580.469 77.3438 576.844 73.5312C573.25 69.6875 571.453 64.8438 571.453 59C571.453 53.1562 573.531 48.3281 577.688 44.5156C581.844 40.6719 587.672 38.75 595.172 38.75C600.172 38.75 604.828 39.4375 609.141 40.8125C613.484 42.1875 617.094 44.125 619.969 46.625L617.344 48.7344C614.781 46.6406 611.562 45.0156 607.688 43.8594C603.812 42.7031 599.641 42.125 595.172 42.125C588.578 42.125 583.531 43.7031 580.031 46.8594C576.562 50.0156 574.828 54.0625 574.828 59C574.828 63.9062 576.297 67.9531 579.234 71.1406C582.172 74.2969 586.391 75.875 591.891 75.875ZM591.891 82.625H597.047C599.453 82.625 601.188 83.25 602.25 84.5C603.312 85.75 603.844 87.375 603.844 89.375C603.844 93.875 600.484 96.125 593.766 96.125C587.422 96.125 582.656 95.1875 579.469 93.3125L582.188 91.25C584.375 92.25 588.234 92.75 593.766 92.75C596.453 92.75 598.25 92.4531 599.156 91.8594C600.094 91.2656 600.562 90.4375 600.562 89.375C600.562 88.3438 600.297 87.5312 599.766 86.9375C599.266 86.3125 598.328 86 596.953 86H591.891C587.578 86 583.672 85.2969 580.172 83.8906C576.703 82.4844 573.844 80.5469 571.594 78.0781C569.375 75.6094 567.672 72.75 566.484 69.5C565.297 66.25 564.703 62.75 564.703 59C564.703 56 565.125 53.1562 565.969 50.4688C566.812 47.7812 568.078 45.3125 569.766 43.0625C571.484 40.8125 573.531 38.875 575.906 37.25C578.312 35.5938 581.156 34.3125 584.438 33.4062C587.75 32.4688 591.328 32 595.172 32C601.203 32 606.844 32.9219 612.094 34.7656C617.344 36.5781 621.719 39.125 625.219 42.4062L622.5 44.4219C619.312 41.5469 615.328 39.3281 610.547 37.7656C605.766 36.1719 600.641 35.375 595.172 35.375C590.891 35.375 587.016 36 583.547 37.25C580.109 38.4688 577.266 40.1562 575.016 42.3125C572.797 44.4688 571.078 46.9688 569.859 49.8125C568.672 52.6562 568.078 55.7188 568.078 59C568.078 63.4062 568.969 67.375 570.75 70.9062C572.531 74.4375 575.25 77.2812 578.906 79.4375C582.562 81.5625 586.891 82.625 591.891 82.625Z" fill="black"/>
</svg>
